<?xml version="1.0" ?><svg id="Layer_1" style="enable-background:new 0 0 64 64;" version="1.1" viewBox="0 0 64 64" xml:space="preserve" xmlns="http://www.w3.org/2000/svg" xmlns:xlink="http://www.w3.org/1999/xlink"><style type="text/css">
	.st0{fill:#57CEF3;}
	.st1{fill-rule:evenodd;clip-rule:evenodd;fill:#0088CC;}
	.st2{fill-rule:evenodd;clip-rule:evenodd;fill:#314A52;}
	.st3{fill:#FFFFFF;}
</style><g id="Telegram"><circle class="st0" cx="32" cy="32" r="30"/><path class="st1" d="M18.5,7.5C9.9,12.2,4,21.4,4,32c0,15.5,12.5,20,28,20c15.5,0,28-4.5,28-20h2c0,11.7-4.3,21.9-13.6,27.5   C43.6,62.4,38,64,32,64C14.3,64,0,49.7,0,32C0,20,6.7,9.5,16.5,4L18.5,7.5z"/><path class="st2" d="M16,4.3C23.3,0,32.1-1.1,40.3,1.1S55.5,8.7,59.7,16s5.4,16.1,3.2,24.3c-2.2,8.2-7.6,15.2-14.9,19.4l-2-3.5   c6.4-3.7,11.1-9.8,13-17C61,32.1,60,24.4,56.2,18c-3.7-6.4-9.8-11.1-17-13C32.1,3,24.4,4,18,7.8L16,4.3z"/><path class="st3" d="M20.3,28.4c-4.1,1.9-8.3,3.4-8.3,4.4c0,1.3,2.5,1.7,5.3,2.6c2.3,0.8,5.3,0.8,7.1-0.6   c2.1-1.6,10.1-6.7,12.6-8.5c2.5-1.9,2.7-0.3,1.6,0.7c-1,1-7,6.6-10,9.7c-1.3,1.2-0.3,3,1,3.9l6.2,4.2C40.5,48,40,48,41.7,48   c1.8,0,2.4-2.1,2.8-4.2c0.4-2.1,1.7-8.9,2.7-16.7c1-7.8,1-8.4,0-8.9c-1-0.5-2.6,0-6.2,1.4C37.4,21,24.4,26.6,20.3,28.4z"/></g></svg>